<svg width="23" height="19" viewBox="0 0 23 19" fill="none" xmlns="http://www.w3.org/2000/svg">
<path d="M22.1069 7.50512C22.094 7.4452 22.075 7.38675 22.0502 7.33066L19.9104 2.33723C19.417 1.18346 18.2168 0.4375 16.8512 0.4375H5.64882C4.28434 0.4375 3.083 1.18346 2.59022 2.33723L0.448075 7.33066C0.399359 7.44329 0.374482 7.56479 0.375008 7.6875V17.6562C0.375008 17.8966 0.470488 18.1271 0.640443 18.2971C0.810398 18.467 1.04091 18.5625 1.28126 18.5625H3.09376C3.33411 18.5625 3.56462 18.467 3.73457 18.2971C3.90453 18.1271 4.00001 17.8966 4.00001 17.6562V16.75H18.5V17.6562C18.5 17.8966 18.5955 18.1271 18.7654 18.2971C18.9354 18.467 19.1659 18.5625 19.4063 18.5625H21.2188C21.4591 18.5625 21.6896 18.467 21.8596 18.2971C22.0295 18.1271 22.125 17.8966 22.125 17.6562V7.6875C22.1251 7.62625 22.1191 7.56514 22.1069 7.50512ZM4.90626 13.125C4.54778 13.125 4.19735 13.0187 3.89929 12.8195C3.60122 12.6204 3.36891 12.3373 3.23173 12.0061C3.09454 11.6749 3.05865 11.3105 3.12858 10.9589C3.19852 10.6073 3.37114 10.2844 3.62463 10.0309C3.87811 9.77739 4.20107 9.60476 4.55266 9.53483C4.90425 9.46489 5.26868 9.50078 5.59987 9.63797C5.93106 9.77515 6.21414 10.0075 6.4133 10.3055C6.61246 10.6036 6.71876 10.954 6.71876 11.3125C6.71876 11.7932 6.5278 12.2542 6.18789 12.5941C5.84798 12.934 5.38696 13.125 4.90626 13.125ZM17.5938 13.125C17.2353 13.125 16.8848 13.0187 16.5868 12.8195C16.2887 12.6204 16.0564 12.3373 15.9192 12.0061C15.782 11.6749 15.7461 11.3105 15.8161 10.9589C15.886 10.6073 16.0586 10.2844 16.3121 10.0309C16.5656 9.77739 16.8886 9.60476 17.2402 9.53483C17.5917 9.46489 17.9562 9.50078 18.2874 9.63797C18.6186 9.77515 18.9016 10.0075 19.1008 10.3055C19.3 10.6036 19.4063 10.954 19.4063 11.3125C19.4063 11.7932 19.2153 12.2542 18.8754 12.5941C18.5355 12.934 18.0745 13.125 17.5938 13.125ZM2.65536 6.78125L4.25432 3.05146C4.45936 2.57228 5.01954 2.25 5.64882 2.25H16.8512C17.4799 2.25 18.0407 2.57228 18.2457 3.05146L19.8447 6.78125H2.65536Z" fill="#4D51B0"/>
</svg>
