<svg width="25" height="25" viewBox="0 0 25 25" fill="none" xmlns="http://www.w3.org/2000/svg">
<g clip-path="url(#clip0_0_5365)">
<path d="M12.5067 0.500244C9.44391 0.500244 6.96094 2.98284 6.96094 6.04598V7.7031H18.0524V6.04598C18.0524 2.98284 15.5694 0.500244 12.5067 0.500244Z" fill="black"/>
<path d="M8.06639 6.28187L8.06644 6.28192L8.06653 6.28196C8.06803 6.27714 8.0242 5.36153 9.03277 4.76411L9.03239 4.76378C9.03239 4.76378 10.0308 4.06914 9.35709 3.08973C9.12084 2.76067 8.84864 2.38918 8.69573 2.01709C7.6275 3.0279 6.96094 4.45886 6.96094 6.04581V7.70293H8.06648V6.28187H8.06639Z" fill="black"/>
<path d="M21.0322 23.2221L19.9768 17.9211C19.6801 16.435 18.1652 16.2253 18.367 16.2849C18.0017 16.1771 15.8335 15.5376 15.5305 15.4482C14.4066 15.4482 10.6009 15.4482 9.4769 15.4482L9.48332 15.4438C9.31715 15.4929 6.66778 16.2743 6.63206 16.2849H6.6321L6.63192 16.2849C6.61382 16.2956 5.77968 16.4388 5.29828 17.2114C4.94507 17.7777 5.07239 17.9082 3.96684 23.2221C3.91345 23.5991 3.90778 24.4999 5.07679 24.4999C9.41142 24.4999 15.6054 24.4999 19.9223 24.4999C21.0913 24.4999 21.0856 23.5991 21.0322 23.2221Z" fill="black"/>
<path d="M5.17441 23.2222C6.29112 17.275 6.10155 16.9235 6.77721 16.2422L6.63204 16.285L6.6319 16.285C6.61197 16.2965 5.78102 16.4368 5.29826 17.2115C4.94505 17.7778 5.07237 17.9083 3.96682 23.2222C3.91347 23.5992 3.9078 24.5001 5.07682 24.5001H6.28436C5.1154 24.5001 5.12102 23.5992 5.17441 23.2222Z" fill="black"/>
<path d="M7.63075 24.5001V20.7233C7.63075 20.5232 7.46856 20.3611 7.2685 20.3611C7.06844 20.3611 6.90625 20.5233 6.90625 20.7233V24.5001C7.15975 24.5001 7.37631 24.5001 7.63075 24.5001Z" fill="black"/>
<path d="M18.1054 24.5001V20.7233C18.1054 20.5232 17.9432 20.3611 17.7431 20.3611C17.543 20.3611 17.3809 20.5233 17.3809 20.7233V24.5001C17.6343 24.5001 17.852 24.5001 18.1054 24.5001Z" fill="black"/>
<path d="M14.3595 13.5532C14.3592 13.5534 14.3589 13.5536 14.3585 13.5537V13.5479C13.22 14.0758 11.8641 14.1149 10.6411 13.5479V13.5537H10.6411C10.6407 13.5536 10.6404 13.5534 10.64 13.5532V13.5537C10.6357 13.5517 10.6314 13.5499 10.6271 13.5479C10.6271 13.9884 10.6271 14.3385 10.6271 14.7673C10.6874 14.9092 10.3405 14.092 11.644 17.1629H13.3679L14.3725 14.7617C14.3725 14.3897 14.3725 13.9809 14.3725 13.5479C14.3682 13.5499 14.3639 13.5517 14.3595 13.5537V13.5532Z" fill="black"/>
<path d="M11.8346 13.9075C11.4146 13.8434 11.014 13.7207 10.6411 13.5479V13.5537H10.6411C10.6407 13.5536 10.6404 13.5534 10.64 13.5532V13.5537C10.6357 13.5517 10.6314 13.5499 10.6271 13.5479C10.6271 13.9884 10.6271 14.3385 10.6271 14.7673C10.6874 14.9092 10.3405 14.092 11.644 17.1629H11.8346V13.9075Z" fill="black"/>
<path d="M14.5088 20.7234C14.2268 20.7234 13.998 20.9521 13.998 21.2342V22.0893C13.998 22.6004 14.4868 23.0185 15.0842 23.0185H15.1086C15.7059 23.0185 16.1947 22.6004 16.1947 22.0893V21.2342C16.1947 20.9521 15.966 20.7234 15.6839 20.7234H14.5088Z" fill="white"/>
<path d="M15.0386 22.0893V21.2342C15.0386 20.9521 15.2673 20.7234 15.5494 20.7234H14.5088C14.2268 20.7234 13.998 20.9521 13.998 21.2342V22.0893C13.998 22.8168 14.9183 23.2284 15.6167 22.9097C15.2735 22.753 15.0386 22.4436 15.0386 22.0893Z" fill="white"/>
<path d="M12.8632 20.7234V17.1628H12.1387V20.7234C12.1387 20.9235 12.3009 21.0856 12.5009 21.0856C12.701 21.0856 12.8632 20.9235 12.8632 20.7234Z" fill="black"/>
<path d="M14.3712 14.665L13.3262 17.1628L14.1869 17.8012C14.3848 17.948 14.6682 17.8619 14.751 17.6298L15.5295 15.4483L14.3712 14.665Z" fill="black"/>
<path d="M10.6265 14.6707L11.6799 17.1629L10.8192 17.8012C10.6213 17.948 10.3378 17.8619 10.2551 17.6299L9.47656 15.4483L10.6265 14.6707Z" fill="black"/>
<path d="M6.68555 8.06702C6.68555 8.70616 7.30425 9.22418 8.06738 9.22418V6.90991C7.30425 6.90991 6.68555 7.42797 6.68555 8.06702Z" fill="black"/>
<path d="M18.3291 8.06702C18.3291 8.70616 17.7104 9.22418 16.9473 9.22418V6.90991C17.7105 6.90991 18.3291 7.42797 18.3291 8.06702Z" fill="black"/>
<path d="M6.82436 7.55981C6.38022 8.32102 7.03961 9.22411 8.06659 9.22411V8.20978C7.52069 8.20978 7.04884 7.94466 6.82436 7.55981Z" fill="black"/>
<path d="M16.9473 8.20978V9.22411C17.9773 9.22411 18.6325 8.319 18.1895 7.55981C17.9651 7.94466 17.4932 8.20978 16.9473 8.20978Z" fill="black"/>
<path d="M16.9467 6.28182C16.9451 6.27676 16.9894 5.36208 15.9803 4.76405C15.9803 4.76405 14.9823 4.06908 15.656 3.08968C15.892 2.76094 16.1648 2.38852 16.3175 2.0168C14.1872 0.00127199 10.8405 -0.0124623 8.69573 2.0168C8.84892 2.38969 9.12286 2.76324 9.35719 3.08968C10.0309 4.06908 9.03248 4.76372 9.03248 4.76372C8.36639 5.15832 8.05701 5.79877 8.06662 6.28191L8.06648 9.61997C8.06648 12.346 10.4852 14.4019 13.1526 14.0132C17.4694 13.3842 16.921 9.53654 16.9467 6.28182Z" fill="white"/>
<path d="M15.5566 7.71204C15.4325 7.55505 15.4592 7.32724 15.6162 7.20316L16.7136 6.33588C16.8706 6.2118 17.0984 6.23852 17.2224 6.39546C17.3465 6.55244 17.3198 6.78025 17.1628 6.90429L16.0654 7.77161C15.9075 7.89649 15.6798 7.86799 15.5566 7.71204Z" fill="black"/>
<path d="M13.1013 8.43568H11.8974C11.6973 8.43568 11.5352 8.27349 11.5352 8.07343C11.5352 7.87332 11.6973 7.71118 11.8974 7.71118H13.1013C13.3013 7.71118 13.4635 7.87337 13.4635 8.07343C13.4635 8.27349 13.3013 8.43568 13.1013 8.43568Z" fill="black"/>
<path d="M10.4658 6.51953C9.60909 6.51953 8.91211 7.21652 8.91211 8.0732C8.91211 8.92989 9.60909 9.62683 10.4658 9.62683C11.3225 9.62683 12.0195 8.92989 12.0195 8.0732C12.0195 7.21652 11.3225 6.51953 10.4658 6.51953Z" fill="black"/>
<path d="M14.5341 6.51953C13.6775 6.51953 12.9805 7.21652 12.9805 8.0732C12.9805 8.92989 13.6775 9.62683 14.5341 9.62683C15.3908 9.62683 16.0878 8.92989 16.0878 8.0732C16.0878 7.21652 15.3908 6.51953 14.5341 6.51953Z" fill="black"/>
<path d="M14.5344 6.51953C14.0802 6.51953 13.671 6.71542 13.3867 7.02714L15.5805 9.22094C16.622 8.27083 15.9561 6.51953 14.5344 6.51953Z" fill="black"/>
<path d="M9.26941 9.62014V6.52344L9.2695 6.52349L9.2696 6.52353C9.26092 4.47655 9.87681 2.92367 10.6684 1.97052C10.6992 1.94441 11.3165 0.819784 13.6586 0.621409C13.4929 0.586581 13.3249 0.558269 13.1542 0.538394C13.1549 0.5383 13.1556 0.538159 13.1563 0.538065C11.4911 0.343909 9.87527 0.900878 8.69571 2.01692C8.84838 2.38841 9.12124 2.76121 9.35721 3.0898C10.0309 4.06921 9.0325 4.76385 9.0325 4.76385L9.03288 4.76417C8.36538 5.15952 8.05661 5.80077 8.06664 6.28203L8.06655 6.28199L8.0665 6.28194V9.6201C8.0665 12.3291 10.4514 14.3785 13.108 14.0188C11.174 13.7921 9.26941 11.8585 9.26941 9.62014Z" fill="black"/>
<path d="M8.93235 7.77165L7.83491 6.90432C7.67797 6.78029 7.65125 6.55248 7.77533 6.39549C7.89941 6.23851 8.12722 6.21179 8.28416 6.33591L9.3816 7.2032C9.53854 7.32723 9.56525 7.55509 9.44118 7.71207C9.3178 7.86826 9.08999 7.89634 8.93235 7.77165Z" fill="black"/>
<path d="M10.4658 6.51953C9.60909 6.51953 8.91211 7.21652 8.91211 8.0732C8.91211 8.92989 9.60909 9.62683 10.4658 9.62683C11.3225 9.62683 12.0195 8.92989 12.0195 8.0732C12.0195 7.21652 11.3225 6.51953 10.4658 6.51953Z" fill="black"/>
<path d="M10.466 6.51953C10.0119 6.51953 9.60266 6.71542 9.31836 7.02714L11.5121 9.22094C12.5536 8.27083 11.8877 6.51953 10.466 6.51953Z" fill="black"/>
</g>
<defs>
<clipPath id="clip0_0_5365">
<rect width="24" height="24" fill="white" transform="translate(0.5 0.5)"/>
</clipPath>
</defs>
</svg>
