<svg width="25" height="16" viewBox="0 0 25 16" fill="none" xmlns="http://www.w3.org/2000/svg">
<path d="M0.166992 15.7501V0.041748H1.37533V10.9167H11.6462V2.45841H20.7087C21.7059 2.45841 22.5594 2.81326 23.2691 3.52296C23.9788 4.23265 24.3337 5.08614 24.3337 6.08341V15.7501H23.1253V12.1251H1.37533V15.7501H0.166992ZM6.20624 8.64025C5.49494 8.64025 4.89158 8.39133 4.39616 7.8935C3.90074 7.39566 3.65303 6.7915 3.65303 6.081C3.65303 5.3705 3.90155 4.76714 4.39857 4.27091C4.8956 3.77469 5.49977 3.52698 6.21107 3.52779C6.92238 3.5286 7.52574 3.77711 8.02116 4.27333C8.51657 4.76955 8.76469 5.37372 8.76549 6.08583C8.7663 6.79794 8.51738 7.4013 8.01874 7.89591C7.5201 8.39052 6.91594 8.63864 6.20624 8.64025Z" fill="#4D51B0"/>
</svg>
