<svg width="43" height="28" viewBox="0 0 43 28" fill="none" xmlns="http://www.w3.org/2000/svg">
<mask id="mask0_1_595" style="mask-type:luminance" maskUnits="userSpaceOnUse" x="0" y="0" width="43" height="25">
<path d="M43 24.4764H25.5312L22.5162 21.9648C22.2347 21.7307 21.8737 21.6018 21.5 21.6018C21.1263 21.6018 20.7653 21.7307 20.4838 21.9648L17.4688 24.4764H0V0H43V24.4764Z" fill="white"/>
</mask>
<g mask="url(#mask0_1_595)">
<g clip-path="url(#clip0_1_595)">
<path d="M21.5 30.0756C25.3962 30.0756 28.5547 27.0674 28.5547 23.3566C28.5547 19.6458 25.3962 16.6376 21.5 16.6376C17.6038 16.6376 14.4453 19.6458 14.4453 23.3566C14.4453 27.0674 17.6038 30.0756 21.5 30.0756Z" fill="url(#paint0_linear_1_595)" stroke="#D0D3D8" stroke-width="0.644531" stroke-miterlimit="10"/>
<path d="M21.5 12.9341V8.95871M21.5 37.7545V33.7791M29.2434 15.9817L32.1828 13.1821M10.8172 33.5311L13.765 30.7235M13.765 15.9737L10.8256 13.1741M32.1996 33.5311L29.2518 30.7235M10.5568 23.3566H6.38281M36.6172 23.3566H32.4432" stroke="#D0D3D8" stroke-width="2.57812" stroke-miterlimit="10" stroke-linecap="round"/>
</g>
</g>
<path d="M10.75 26.5561H18.1406L21.5 23.6765L24.8594 26.5561H32.25" stroke="#D0D3D8" stroke-width="1.93359" stroke-linecap="round" stroke-linejoin="round"/>
<defs>
<linearGradient id="paint0_linear_1_595" x1="17.9727" y1="17.5334" x2="24.5239" y2="29.4563" gradientUnits="userSpaceOnUse">
<stop stop-color="#D0D3D8"/>
</linearGradient>
<clipPath id="clip0_1_595">
<rect width="32.25" height="30.7155" fill="white" transform="translate(5.375 7.99884)"/>
</clipPath>
</defs>
</svg>
