<svg width="50" height="50" viewBox="0 0 50 50" fill="none" xmlns="http://www.w3.org/2000/svg">
<g clip-path="url(#clip0_0_135)">
<path d="M27.3214 33.1435C24.8492 33.1435 22.4783 32.2082 20.7302 30.5433C18.9821 28.8783 18 26.6202 18 24.2657C18 20.6686 20.1696 17.4435 23.5289 16.051C23.6473 16.0018 23.7785 15.9878 23.9054 16.0107C24.0323 16.0336 24.149 16.0924 24.2403 16.1793C24.3317 16.2663 24.3934 16.3775 24.4174 16.4983C24.4414 16.6192 24.4267 16.7441 24.3751 16.8569C23.9894 17.7003 23.7857 18.7805 23.7857 19.9798C23.7857 24.1999 27.3905 27.6331 31.8214 27.6331C33.0805 27.6331 34.2148 27.4391 35.1003 27.0718C35.2187 27.0226 35.3499 27.0086 35.4768 27.0315C35.6037 27.0544 35.7204 27.1131 35.8117 27.2001C35.903 27.2871 35.9647 27.3982 35.9888 27.5191C36.0128 27.64 35.9981 27.7649 35.9465 27.8777C34.4844 31.0771 31.0981 33.1435 27.3214 33.1435Z" fill="#FCBF25"/>
</g>
<defs>
<clipPath id="clip0_0_135">
<rect width="50" height="50" fill="white"/>
</clipPath>
</defs>
</svg>
