<svg width="18" height="18" viewBox="0 0 18 18" fill="none" xmlns="http://www.w3.org/2000/svg">
<path d="M9.32138 17.1435C6.84919 17.1435 4.47827 16.2082 2.73017 14.5433C0.982071 12.8783 0 10.6202 0 8.26568C0 4.66862 2.16963 1.44351 5.52894 0.0509898C5.64734 0.00184591 5.77853 -0.012195 5.90542 0.0106968C6.03231 0.0335886 6.14903 0.0923516 6.24035 0.179329C6.33167 0.266306 6.39337 0.377464 6.4174 0.49832C6.44144 0.619175 6.4267 0.744124 6.3751 0.856884C5.98939 1.70028 5.78568 2.78055 5.78568 3.97982C5.78568 8.19986 9.39048 11.6331 13.8214 11.6331C15.0805 11.6331 16.2148 11.4391 17.1003 11.0718C17.2187 11.0226 17.3499 11.0086 17.4768 11.0315C17.6037 11.0544 17.7204 11.1131 17.8117 11.2001C17.903 11.2871 17.9647 11.3982 17.9888 11.5191C18.0128 11.64 17.9981 11.7649 17.9465 11.8777C16.4844 15.0771 13.0981 17.1435 9.32138 17.1435Z" fill="#D0D3D8"/>
</svg>
