<svg width="50" height="50" viewBox="0 0 50 50" fill="none" xmlns="http://www.w3.org/2000/svg">
<g clip-path="url(#clip0_0_47)">
<path d="M23.4444 12.5556C23.4444 12.5556 23.4444 11 25 11C26.5556 11 26.5556 12.5556 26.5556 12.5556V14.1111C26.5556 14.1111 26.5556 15.6667 25 15.6667C23.4444 15.6667 23.4444 14.1111 23.4444 14.1111V12.5556ZM37.4444 23.4444C37.4444 23.4444 39 23.4444 39 25C39 26.5556 37.4444 26.5556 37.4444 26.5556H35.8889C35.8889 26.5556 34.3333 26.5556 34.3333 25C34.3333 23.4444 35.8889 23.4444 35.8889 23.4444H37.4444ZM14.1111 23.4444C14.1111 23.4444 15.6667 23.4444 15.6667 25C15.6667 26.5556 14.1111 26.5556 14.1111 26.5556H12.5556C12.5556 26.5556 11 26.5556 11 25C11 23.4444 12.5556 23.4444 12.5556 23.4444H14.1111ZM18.0941 16.6723C18.0941 16.6723 19.1939 17.7721 18.0941 18.8719C16.9943 19.9717 15.8946 18.8719 15.8946 18.8719L14.794 17.7729C14.794 17.7729 13.6942 16.6731 14.794 15.5726C15.8946 14.4728 16.9943 15.5726 16.9943 15.5726L18.0941 16.6723ZM34.4274 33.0057C34.4274 33.0057 35.5272 34.1054 34.4274 35.2052C33.3277 36.305 32.2279 35.2052 32.2279 35.2052L31.1281 34.1054C31.1281 34.1054 30.0283 33.0057 31.1281 31.9059C32.2279 30.8061 33.3277 31.9059 33.3277 31.9059L34.4274 33.0057ZM34.1062 18.8719C34.1062 18.8719 33.0064 19.9717 31.9067 18.8719C30.8069 17.7721 31.9067 16.6723 31.9067 16.6723L33.0064 15.5726C33.0064 15.5726 34.1062 14.4728 35.206 15.5726C36.3058 16.6723 35.206 17.7721 35.206 17.7721L34.1062 18.8719ZM17.7729 35.2052C17.7729 35.2052 16.6731 36.305 15.5733 35.2052C14.4736 34.1054 15.5733 33.0057 15.5733 33.0057L16.6731 31.9059C16.6731 31.9059 17.7729 30.8061 18.8727 31.9059C19.9724 33.0057 18.8727 34.1054 18.8727 34.1054L17.7729 35.2052ZM23.4444 35.8889C23.4444 35.8889 23.4444 34.3333 25 34.3333C26.5556 34.3333 26.5556 35.8889 26.5556 35.8889V37.4444C26.5556 37.4444 26.5556 39 25 39C23.4444 39 23.4444 37.4444 23.4444 37.4444V35.8889Z" fill="#FCBF25"/>
<path d="M24.9999 32.5556C29.2955 32.5556 32.7777 29.0733 32.7777 24.7778C32.7777 20.4822 29.2955 17 24.9999 17C20.7044 17 17.2222 20.4822 17.2222 24.7778C17.2222 29.0733 20.7044 32.5556 24.9999 32.5556Z" fill="#FCBF25"/>
</g>
<defs>
<clipPath id="clip0_0_47">
<rect width="50" height="50" fill="white"/>
</clipPath>
</defs>
</svg>
