<svg width="28" height="28" viewBox="0 0 28 28" fill="none" xmlns="http://www.w3.org/2000/svg">
<g clip-path="url(#clip0_1_604)">
<path d="M12.4444 1.55556C12.4444 1.55556 12.4444 0 14 0C15.5556 0 15.5556 1.55556 15.5556 1.55556V3.11111C15.5556 3.11111 15.5556 4.66667 14 4.66667C12.4444 4.66667 12.4444 3.11111 12.4444 3.11111V1.55556ZM26.4444 12.4444C26.4444 12.4444 28 12.4444 28 14C28 15.5556 26.4444 15.5556 26.4444 15.5556H24.8889C24.8889 15.5556 23.3333 15.5556 23.3333 14C23.3333 12.4444 24.8889 12.4444 24.8889 12.4444H26.4444ZM3.11111 12.4444C3.11111 12.4444 4.66667 12.4444 4.66667 14C4.66667 15.5556 3.11111 15.5556 3.11111 15.5556H1.55556C1.55556 15.5556 0 15.5556 0 14C0 12.4444 1.55556 12.4444 1.55556 12.4444H3.11111ZM7.09411 5.67233C7.09411 5.67233 8.19389 6.77211 7.09411 7.87189C5.99433 8.97167 4.89456 7.87189 4.89456 7.87189L3.794 6.77289C3.794 6.77289 2.69422 5.67311 3.794 4.57256C4.89456 3.47278 5.99433 4.57256 5.99433 4.57256L7.09411 5.67233ZM23.4274 22.0057C23.4274 22.0057 24.5272 23.1054 23.4274 24.2052C22.3277 25.305 21.2279 24.2052 21.2279 24.2052L20.1281 23.1054C20.1281 23.1054 19.0283 22.0057 20.1281 20.9059C21.2279 19.8061 22.3277 20.9059 22.3277 20.9059L23.4274 22.0057ZM23.1062 7.87189C23.1062 7.87189 22.0064 8.97167 20.9067 7.87189C19.8069 6.77211 20.9067 5.67233 20.9067 5.67233L22.0064 4.57256C22.0064 4.57256 23.1062 3.47278 24.206 4.57256C25.3058 5.67233 24.206 6.77211 24.206 6.77211L23.1062 7.87189ZM6.77289 24.2052C6.77289 24.2052 5.67311 25.305 4.57333 24.2052C3.47356 23.1054 4.57333 22.0057 4.57333 22.0057L5.67311 20.9059C5.67311 20.9059 6.77289 19.8061 7.87267 20.9059C8.97244 22.0057 7.87267 23.1054 7.87267 23.1054L6.77289 24.2052ZM12.4444 24.8889C12.4444 24.8889 12.4444 23.3333 14 23.3333C15.5556 23.3333 15.5556 24.8889 15.5556 24.8889V26.4444C15.5556 26.4444 15.5556 28 14 28C12.4444 28 12.4444 26.4444 12.4444 26.4444V24.8889Z" fill="#D0D3D8"/>
<path d="M14 21.7778C18.2956 21.7778 21.7778 18.2956 21.7778 14C21.7778 9.70446 18.2956 6.22223 14 6.22223C9.70446 6.22223 6.22223 9.70446 6.22223 14C6.22223 18.2956 9.70446 21.7778 14 21.7778Z" fill="#D0D3D8"/>
</g>
<defs>
<clipPath id="clip0_1_604">
<rect width="28" height="28" fill="white"/>
</clipPath>
</defs>
</svg>
