<svg width="1056" height="369" viewBox="0 0 1056 369" fill="none" xmlns="http://www.w3.org/2000/svg">
<g opacity="0.15">
<circle cx="1052" cy="4" r="4" transform="rotate(90 1052 4)" fill="#4D51B0"/>
<circle cx="1052" cy="20" r="4" transform="rotate(90 1052 20)" fill="#4D51B0"/>
<circle cx="1052" cy="36" r="4" transform="rotate(90 1052 36)" fill="#4D51B0"/>
<circle cx="1052" cy="52" r="4" transform="rotate(90 1052 52)" fill="#4D51B0"/>
<circle cx="1052" cy="68" r="4" transform="rotate(90 1052 68)" fill="#4D51B0"/>
<circle cx="1052" cy="84" r="4" transform="rotate(90 1052 84)" fill="#4D51B0"/>
<circle cx="1052" cy="100" r="4" transform="rotate(90 1052 100)" fill="#4D51B0"/>
<circle cx="1052" cy="116" r="4" transform="rotate(90 1052 116)" fill="#4D51B0"/>
<circle cx="1052" cy="132" r="4" transform="rotate(90 1052 132)" fill="#4D51B0"/>
<circle cx="1052" cy="148" r="4" transform="rotate(90 1052 148)" fill="#4D51B0"/>
<circle cx="1052" cy="164" r="4" transform="rotate(90 1052 164)" fill="#4D51B0"/>
<circle cx="1036" cy="4" r="4" transform="rotate(90 1036 4)" fill="#4D51B0"/>
<circle cx="1036" cy="20" r="4" transform="rotate(90 1036 20)" fill="#4D51B0"/>
<circle cx="1036" cy="36" r="4" transform="rotate(90 1036 36)" fill="#4D51B0"/>
<circle cx="1036" cy="52" r="4" transform="rotate(90 1036 52)" fill="#4D51B0"/>
<circle cx="1036" cy="68" r="4" transform="rotate(90 1036 68)" fill="#4D51B0"/>
<circle cx="1036" cy="84" r="4" transform="rotate(90 1036 84)" fill="#4D51B0"/>
<circle cx="1036" cy="100" r="4" transform="rotate(90 1036 100)" fill="#4D51B0"/>
<circle cx="1036" cy="116" r="4" transform="rotate(90 1036 116)" fill="#4D51B0"/>
<circle cx="1036" cy="132" r="4" transform="rotate(90 1036 132)" fill="#4D51B0"/>
<circle cx="1036" cy="148" r="4" transform="rotate(90 1036 148)" fill="#4D51B0"/>
<circle cx="1036" cy="164" r="4" transform="rotate(90 1036 164)" fill="#4D51B0"/>
<circle cx="1020" cy="4" r="4" transform="rotate(90 1020 4)" fill="#4D51B0"/>
<circle cx="1020" cy="20" r="4" transform="rotate(90 1020 20)" fill="#4D51B0"/>
<circle cx="1020" cy="36" r="4" transform="rotate(90 1020 36)" fill="#4D51B0"/>
<circle cx="1020" cy="52" r="4" transform="rotate(90 1020 52)" fill="#4D51B0"/>
<circle cx="1020" cy="68" r="4" transform="rotate(90 1020 68)" fill="#4D51B0"/>
<circle cx="1020" cy="84" r="4" transform="rotate(90 1020 84)" fill="#4D51B0"/>
<circle cx="1020" cy="100" r="4" transform="rotate(90 1020 100)" fill="#4D51B0"/>
<circle cx="1020" cy="116" r="4" transform="rotate(90 1020 116)" fill="#4D51B0"/>
<circle cx="1020" cy="132" r="4" transform="rotate(90 1020 132)" fill="#4D51B0"/>
<circle cx="1020" cy="148" r="4" transform="rotate(90 1020 148)" fill="#4D51B0"/>
<circle cx="1020" cy="164" r="4" transform="rotate(90 1020 164)" fill="#4D51B0"/>
<circle cx="1004" cy="4" r="4" transform="rotate(90 1004 4)" fill="#4D51B0"/>
<circle cx="1004" cy="20" r="4" transform="rotate(90 1004 20)" fill="#4D51B0"/>
<circle cx="1004" cy="36" r="4" transform="rotate(90 1004 36)" fill="#4D51B0"/>
<circle cx="1004" cy="52" r="4" transform="rotate(90 1004 52)" fill="#4D51B0"/>
<circle cx="1004" cy="68" r="4" transform="rotate(90 1004 68)" fill="#4D51B0"/>
<circle cx="1004" cy="84" r="4" transform="rotate(90 1004 84)" fill="#4D51B0"/>
<circle cx="1004" cy="100" r="4" transform="rotate(90 1004 100)" fill="#4D51B0"/>
<circle cx="1004" cy="116" r="4" transform="rotate(90 1004 116)" fill="#4D51B0"/>
<circle cx="1004" cy="132" r="4" transform="rotate(90 1004 132)" fill="#4D51B0"/>
<circle cx="1004" cy="148" r="4" transform="rotate(90 1004 148)" fill="#4D51B0"/>
<circle cx="1004" cy="164" r="4" transform="rotate(90 1004 164)" fill="#4D51B0"/>
<circle cx="988" cy="4" r="4" transform="rotate(90 988 4)" fill="#4D51B0"/>
<circle cx="988" cy="20" r="4" transform="rotate(90 988 20)" fill="#4D51B0"/>
<circle cx="988" cy="36" r="4" transform="rotate(90 988 36)" fill="#4D51B0"/>
<circle cx="988" cy="52" r="4" transform="rotate(90 988 52)" fill="#4D51B0"/>
<circle cx="988" cy="68" r="4" transform="rotate(90 988 68)" fill="#4D51B0"/>
<circle cx="988" cy="84" r="4" transform="rotate(90 988 84)" fill="#4D51B0"/>
<circle cx="988" cy="100" r="4" transform="rotate(90 988 100)" fill="#4D51B0"/>
<circle cx="988" cy="116" r="4" transform="rotate(90 988 116)" fill="#4D51B0"/>
<circle cx="988" cy="132" r="4" transform="rotate(90 988 132)" fill="#4D51B0"/>
<circle cx="988" cy="148" r="4" transform="rotate(90 988 148)" fill="#4D51B0"/>
<circle cx="988" cy="164" r="4" transform="rotate(90 988 164)" fill="#4D51B0"/>
<circle cx="972" cy="4" r="4" transform="rotate(90 972 4)" fill="#4D51B0"/>
<circle cx="972" cy="20" r="4" transform="rotate(90 972 20)" fill="#4D51B0"/>
<circle cx="972" cy="36" r="4" transform="rotate(90 972 36)" fill="#4D51B0"/>
<circle cx="972" cy="52" r="4" transform="rotate(90 972 52)" fill="#4D51B0"/>
<circle cx="972" cy="68" r="4" transform="rotate(90 972 68)" fill="#4D51B0"/>
<circle cx="972" cy="84" r="4" transform="rotate(90 972 84)" fill="#4D51B0"/>
<circle cx="972" cy="100" r="4" transform="rotate(90 972 100)" fill="#4D51B0"/>
<circle cx="972" cy="116" r="4" transform="rotate(90 972 116)" fill="#4D51B0"/>
<circle cx="972" cy="132" r="4" transform="rotate(90 972 132)" fill="#4D51B0"/>
<circle cx="972" cy="148" r="4" transform="rotate(90 972 148)" fill="#4D51B0"/>
<circle cx="972" cy="164" r="4" transform="rotate(90 972 164)" fill="#4D51B0"/>
<circle cx="956" cy="4" r="4" transform="rotate(90 956 4)" fill="#4D51B0"/>
<circle cx="956" cy="20" r="4" transform="rotate(90 956 20)" fill="#4D51B0"/>
<circle cx="956" cy="36" r="4" transform="rotate(90 956 36)" fill="#4D51B0"/>
<circle cx="956" cy="52" r="4" transform="rotate(90 956 52)" fill="#4D51B0"/>
<circle cx="956" cy="68" r="4" transform="rotate(90 956 68)" fill="#4D51B0"/>
<circle cx="956" cy="84" r="4" transform="rotate(90 956 84)" fill="#4D51B0"/>
<circle cx="956" cy="100" r="4" transform="rotate(90 956 100)" fill="#4D51B0"/>
<circle cx="956" cy="116" r="4" transform="rotate(90 956 116)" fill="#4D51B0"/>
<circle cx="956" cy="132" r="4" transform="rotate(90 956 132)" fill="#4D51B0"/>
<circle cx="956" cy="148" r="4" transform="rotate(90 956 148)" fill="#4D51B0"/>
<circle cx="956" cy="164" r="4" transform="rotate(90 956 164)" fill="#4D51B0"/>
<circle cx="940" cy="4" r="4" transform="rotate(90 940 4)" fill="#4D51B0"/>
<circle cx="940" cy="20" r="4" transform="rotate(90 940 20)" fill="#4D51B0"/>
<circle cx="940" cy="36" r="4" transform="rotate(90 940 36)" fill="#4D51B0"/>
<circle cx="940" cy="52" r="4" transform="rotate(90 940 52)" fill="#4D51B0"/>
<circle cx="940" cy="68" r="4" transform="rotate(90 940 68)" fill="#4D51B0"/>
<circle cx="940" cy="84" r="4" transform="rotate(90 940 84)" fill="#4D51B0"/>
<circle cx="940" cy="100" r="4" transform="rotate(90 940 100)" fill="#4D51B0"/>
<circle cx="940" cy="116" r="4" transform="rotate(90 940 116)" fill="#4D51B0"/>
<circle cx="940" cy="132" r="4" transform="rotate(90 940 132)" fill="#4D51B0"/>
<circle cx="940" cy="148" r="4" transform="rotate(90 940 148)" fill="#4D51B0"/>
<circle cx="940" cy="164" r="4" transform="rotate(90 940 164)" fill="#4D51B0"/>
<circle cx="924" cy="4" r="4" transform="rotate(90 924 4)" fill="#4D51B0"/>
<circle cx="924" cy="20" r="4" transform="rotate(90 924 20)" fill="#4D51B0"/>
<circle cx="924" cy="36" r="4" transform="rotate(90 924 36)" fill="#4D51B0"/>
<circle cx="924" cy="52" r="4" transform="rotate(90 924 52)" fill="#4D51B0"/>
<circle cx="924" cy="68" r="4" transform="rotate(90 924 68)" fill="#4D51B0"/>
<circle cx="924" cy="84" r="4" transform="rotate(90 924 84)" fill="#4D51B0"/>
<circle cx="924" cy="100" r="4" transform="rotate(90 924 100)" fill="#4D51B0"/>
<circle cx="924" cy="116" r="4" transform="rotate(90 924 116)" fill="#4D51B0"/>
<circle cx="924" cy="132" r="4" transform="rotate(90 924 132)" fill="#4D51B0"/>
<circle cx="924" cy="148" r="4" transform="rotate(90 924 148)" fill="#4D51B0"/>
<circle cx="924" cy="164" r="4" transform="rotate(90 924 164)" fill="#4D51B0"/>
<circle cx="908" cy="4" r="4" transform="rotate(90 908 4)" fill="#4D51B0"/>
<circle cx="908" cy="20" r="4" transform="rotate(90 908 20)" fill="#4D51B0"/>
<circle cx="908" cy="36" r="4" transform="rotate(90 908 36)" fill="#4D51B0"/>
<circle cx="908" cy="52" r="4" transform="rotate(90 908 52)" fill="#4D51B0"/>
<circle cx="908" cy="68" r="4" transform="rotate(90 908 68)" fill="#4D51B0"/>
<circle cx="908" cy="84" r="4" transform="rotate(90 908 84)" fill="#4D51B0"/>
<circle cx="908" cy="100" r="4" transform="rotate(90 908 100)" fill="#4D51B0"/>
<circle cx="908" cy="116" r="4" transform="rotate(90 908 116)" fill="#4D51B0"/>
<circle cx="908" cy="132" r="4" transform="rotate(90 908 132)" fill="#4D51B0"/>
<circle cx="908" cy="148" r="4" transform="rotate(90 908 148)" fill="#4D51B0"/>
<circle cx="908" cy="164" r="4" transform="rotate(90 908 164)" fill="#4D51B0"/>
<circle cx="892" cy="4" r="4" transform="rotate(90 892 4)" fill="#4D51B0"/>
<circle cx="892" cy="20" r="4" transform="rotate(90 892 20)" fill="#4D51B0"/>
<circle cx="892" cy="36" r="4" transform="rotate(90 892 36)" fill="#4D51B0"/>
<circle cx="892" cy="52" r="4" transform="rotate(90 892 52)" fill="#4D51B0"/>
<circle cx="892" cy="68" r="4" transform="rotate(90 892 68)" fill="#4D51B0"/>
<circle cx="892" cy="84" r="4" transform="rotate(90 892 84)" fill="#4D51B0"/>
<circle cx="892" cy="100" r="4" transform="rotate(90 892 100)" fill="#4D51B0"/>
<circle cx="892" cy="116" r="4" transform="rotate(90 892 116)" fill="#4D51B0"/>
<circle cx="892" cy="132" r="4" transform="rotate(90 892 132)" fill="#4D51B0"/>
<circle cx="892" cy="148" r="4" transform="rotate(90 892 148)" fill="#4D51B0"/>
<circle cx="892" cy="164" r="4" transform="rotate(90 892 164)" fill="#4D51B0"/>
<circle cx="876" cy="4" r="4" transform="rotate(90 876 4)" fill="#4D51B0"/>
<circle cx="876" cy="20" r="4" transform="rotate(90 876 20)" fill="#4D51B0"/>
<circle cx="876" cy="36" r="4" transform="rotate(90 876 36)" fill="#4D51B0"/>
<circle cx="876" cy="52" r="4" transform="rotate(90 876 52)" fill="#4D51B0"/>
<circle cx="876" cy="68" r="4" transform="rotate(90 876 68)" fill="#4D51B0"/>
<circle cx="876" cy="84" r="4" transform="rotate(90 876 84)" fill="#4D51B0"/>
<circle cx="876" cy="100" r="4" transform="rotate(90 876 100)" fill="#4D51B0"/>
<circle cx="876" cy="116" r="4" transform="rotate(90 876 116)" fill="#4D51B0"/>
<circle cx="876" cy="132" r="4" transform="rotate(90 876 132)" fill="#4D51B0"/>
<circle cx="876" cy="148" r="4" transform="rotate(90 876 148)" fill="#4D51B0"/>
<circle cx="876" cy="164" r="4" transform="rotate(90 876 164)" fill="#4D51B0"/>
<circle cx="860" cy="4" r="4" transform="rotate(90 860 4)" fill="#4D51B0"/>
<circle cx="860" cy="20" r="4" transform="rotate(90 860 20)" fill="#4D51B0"/>
<circle cx="860" cy="36" r="4" transform="rotate(90 860 36)" fill="#4D51B0"/>
<circle cx="860" cy="52" r="4" transform="rotate(90 860 52)" fill="#4D51B0"/>
<circle cx="860" cy="68" r="4" transform="rotate(90 860 68)" fill="#4D51B0"/>
<circle cx="860" cy="84" r="4" transform="rotate(90 860 84)" fill="#4D51B0"/>
<circle cx="860" cy="100" r="4" transform="rotate(90 860 100)" fill="#4D51B0"/>
<circle cx="860" cy="116" r="4" transform="rotate(90 860 116)" fill="#4D51B0"/>
<circle cx="860" cy="132" r="4" transform="rotate(90 860 132)" fill="#4D51B0"/>
<circle cx="860" cy="148" r="4" transform="rotate(90 860 148)" fill="#4D51B0"/>
<circle cx="860" cy="164" r="4" transform="rotate(90 860 164)" fill="#4D51B0"/>
<circle cx="844" cy="4" r="4" transform="rotate(90 844 4)" fill="#4D51B0"/>
<circle cx="844" cy="20" r="4" transform="rotate(90 844 20)" fill="#4D51B0"/>
<circle cx="844" cy="36" r="4" transform="rotate(90 844 36)" fill="#4D51B0"/>
<circle cx="844" cy="52" r="4" transform="rotate(90 844 52)" fill="#4D51B0"/>
<circle cx="844" cy="68" r="4" transform="rotate(90 844 68)" fill="#4D51B0"/>
<circle cx="844" cy="84" r="4" transform="rotate(90 844 84)" fill="#4D51B0"/>
<circle cx="844" cy="100" r="4" transform="rotate(90 844 100)" fill="#4D51B0"/>
<circle cx="844" cy="116" r="4" transform="rotate(90 844 116)" fill="#4D51B0"/>
<circle cx="844" cy="132" r="4" transform="rotate(90 844 132)" fill="#4D51B0"/>
<circle cx="844" cy="148" r="4" transform="rotate(90 844 148)" fill="#4D51B0"/>
<circle cx="844" cy="164" r="4" transform="rotate(90 844 164)" fill="#4D51B0"/>
</g>
<g opacity="0.15">
<circle cx="212" cy="205" r="4" transform="rotate(90 212 205)" fill="#4D51B0"/>
<circle cx="212" cy="221" r="4" transform="rotate(90 212 221)" fill="#4D51B0"/>
<circle cx="212" cy="237" r="4" transform="rotate(90 212 237)" fill="#4D51B0"/>
<circle cx="212" cy="253" r="4" transform="rotate(90 212 253)" fill="#4D51B0"/>
<circle cx="212" cy="269" r="4" transform="rotate(90 212 269)" fill="#4D51B0"/>
<circle cx="212" cy="285" r="4" transform="rotate(90 212 285)" fill="#4D51B0"/>
<circle cx="212" cy="301" r="4" transform="rotate(90 212 301)" fill="#4D51B0"/>
<circle cx="212" cy="317" r="4" transform="rotate(90 212 317)" fill="#4D51B0"/>
<circle cx="212" cy="333" r="4" transform="rotate(90 212 333)" fill="#4D51B0"/>
<circle cx="212" cy="349" r="4" transform="rotate(90 212 349)" fill="#4D51B0"/>
<circle cx="212" cy="365" r="4" transform="rotate(90 212 365)" fill="#4D51B0"/>
<circle cx="196" cy="205" r="4" transform="rotate(90 196 205)" fill="#4D51B0"/>
<circle cx="196" cy="221" r="4" transform="rotate(90 196 221)" fill="#4D51B0"/>
<circle cx="196" cy="237" r="4" transform="rotate(90 196 237)" fill="#4D51B0"/>
<circle cx="196" cy="253" r="4" transform="rotate(90 196 253)" fill="#4D51B0"/>
<circle cx="196" cy="269" r="4" transform="rotate(90 196 269)" fill="#4D51B0"/>
<circle cx="196" cy="285" r="4" transform="rotate(90 196 285)" fill="#4D51B0"/>
<circle cx="196" cy="301" r="4" transform="rotate(90 196 301)" fill="#4D51B0"/>
<circle cx="196" cy="317" r="4" transform="rotate(90 196 317)" fill="#4D51B0"/>
<circle cx="196" cy="333" r="4" transform="rotate(90 196 333)" fill="#4D51B0"/>
<circle cx="196" cy="349" r="4" transform="rotate(90 196 349)" fill="#4D51B0"/>
<circle cx="196" cy="365" r="4" transform="rotate(90 196 365)" fill="#4D51B0"/>
<circle cx="180" cy="205" r="4" transform="rotate(90 180 205)" fill="#4D51B0"/>
<circle cx="180" cy="221" r="4" transform="rotate(90 180 221)" fill="#4D51B0"/>
<circle cx="180" cy="237" r="4" transform="rotate(90 180 237)" fill="#4D51B0"/>
<circle cx="180" cy="253" r="4" transform="rotate(90 180 253)" fill="#4D51B0"/>
<circle cx="180" cy="269" r="4" transform="rotate(90 180 269)" fill="#4D51B0"/>
<circle cx="180" cy="285" r="4" transform="rotate(90 180 285)" fill="#4D51B0"/>
<circle cx="180" cy="301" r="4" transform="rotate(90 180 301)" fill="#4D51B0"/>
<circle cx="180" cy="317" r="4" transform="rotate(90 180 317)" fill="#4D51B0"/>
<circle cx="180" cy="333" r="4" transform="rotate(90 180 333)" fill="#4D51B0"/>
<circle cx="180" cy="349" r="4" transform="rotate(90 180 349)" fill="#4D51B0"/>
<circle cx="180" cy="365" r="4" transform="rotate(90 180 365)" fill="#4D51B0"/>
<circle cx="164" cy="205" r="4" transform="rotate(90 164 205)" fill="#4D51B0"/>
<circle cx="164" cy="221" r="4" transform="rotate(90 164 221)" fill="#4D51B0"/>
<circle cx="164" cy="237" r="4" transform="rotate(90 164 237)" fill="#4D51B0"/>
<circle cx="164" cy="253" r="4" transform="rotate(90 164 253)" fill="#4D51B0"/>
<circle cx="164" cy="269" r="4" transform="rotate(90 164 269)" fill="#4D51B0"/>
<circle cx="164" cy="285" r="4" transform="rotate(90 164 285)" fill="#4D51B0"/>
<circle cx="164" cy="301" r="4" transform="rotate(90 164 301)" fill="#4D51B0"/>
<circle cx="164" cy="317" r="4" transform="rotate(90 164 317)" fill="#4D51B0"/>
<circle cx="164" cy="333" r="4" transform="rotate(90 164 333)" fill="#4D51B0"/>
<circle cx="164" cy="349" r="4" transform="rotate(90 164 349)" fill="#4D51B0"/>
<circle cx="164" cy="365" r="4" transform="rotate(90 164 365)" fill="#4D51B0"/>
<circle cx="148" cy="205" r="4" transform="rotate(90 148 205)" fill="#4D51B0"/>
<circle cx="148" cy="221" r="4" transform="rotate(90 148 221)" fill="#4D51B0"/>
<circle cx="148" cy="237" r="4" transform="rotate(90 148 237)" fill="#4D51B0"/>
<circle cx="148" cy="253" r="4" transform="rotate(90 148 253)" fill="#4D51B0"/>
<circle cx="148" cy="269" r="4" transform="rotate(90 148 269)" fill="#4D51B0"/>
<circle cx="148" cy="285" r="4" transform="rotate(90 148 285)" fill="#4D51B0"/>
<circle cx="148" cy="301" r="4" transform="rotate(90 148 301)" fill="#4D51B0"/>
<circle cx="148" cy="317" r="4" transform="rotate(90 148 317)" fill="#4D51B0"/>
<circle cx="148" cy="333" r="4" transform="rotate(90 148 333)" fill="#4D51B0"/>
<circle cx="148" cy="349" r="4" transform="rotate(90 148 349)" fill="#4D51B0"/>
<circle cx="148" cy="365" r="4" transform="rotate(90 148 365)" fill="#4D51B0"/>
<circle cx="132" cy="205" r="4" transform="rotate(90 132 205)" fill="#4D51B0"/>
<circle cx="132" cy="221" r="4" transform="rotate(90 132 221)" fill="#4D51B0"/>
<circle cx="132" cy="237" r="4" transform="rotate(90 132 237)" fill="#4D51B0"/>
<circle cx="132" cy="253" r="4" transform="rotate(90 132 253)" fill="#4D51B0"/>
<circle cx="132" cy="269" r="4" transform="rotate(90 132 269)" fill="#4D51B0"/>
<circle cx="132" cy="285" r="4" transform="rotate(90 132 285)" fill="#4D51B0"/>
<circle cx="132" cy="301" r="4" transform="rotate(90 132 301)" fill="#4D51B0"/>
<circle cx="132" cy="317" r="4" transform="rotate(90 132 317)" fill="#4D51B0"/>
<circle cx="132" cy="333" r="4" transform="rotate(90 132 333)" fill="#4D51B0"/>
<circle cx="132" cy="349" r="4" transform="rotate(90 132 349)" fill="#4D51B0"/>
<circle cx="132" cy="365" r="4" transform="rotate(90 132 365)" fill="#4D51B0"/>
<circle cx="116" cy="205" r="4" transform="rotate(90 116 205)" fill="#4D51B0"/>
<circle cx="116" cy="221" r="4" transform="rotate(90 116 221)" fill="#4D51B0"/>
<circle cx="116" cy="237" r="4" transform="rotate(90 116 237)" fill="#4D51B0"/>
<circle cx="116" cy="253" r="4" transform="rotate(90 116 253)" fill="#4D51B0"/>
<circle cx="116" cy="269" r="4" transform="rotate(90 116 269)" fill="#4D51B0"/>
<circle cx="116" cy="285" r="4" transform="rotate(90 116 285)" fill="#4D51B0"/>
<circle cx="116" cy="301" r="4" transform="rotate(90 116 301)" fill="#4D51B0"/>
<circle cx="116" cy="317" r="4" transform="rotate(90 116 317)" fill="#4D51B0"/>
<circle cx="116" cy="333" r="4" transform="rotate(90 116 333)" fill="#4D51B0"/>
<circle cx="116" cy="349" r="4" transform="rotate(90 116 349)" fill="#4D51B0"/>
<circle cx="116" cy="365" r="4" transform="rotate(90 116 365)" fill="#4D51B0"/>
<circle cx="100" cy="205" r="4" transform="rotate(90 100 205)" fill="#4D51B0"/>
<circle cx="100" cy="221" r="4" transform="rotate(90 100 221)" fill="#4D51B0"/>
<circle cx="100" cy="237" r="4" transform="rotate(90 100 237)" fill="#4D51B0"/>
<circle cx="100" cy="253" r="4" transform="rotate(90 100 253)" fill="#4D51B0"/>
<circle cx="100" cy="269" r="4" transform="rotate(90 100 269)" fill="#4D51B0"/>
<circle cx="100" cy="285" r="4" transform="rotate(90 100 285)" fill="#4D51B0"/>
<circle cx="100" cy="301" r="4" transform="rotate(90 100 301)" fill="#4D51B0"/>
<circle cx="100" cy="317" r="4" transform="rotate(90 100 317)" fill="#4D51B0"/>
<circle cx="100" cy="333" r="4" transform="rotate(90 100 333)" fill="#4D51B0"/>
<circle cx="100" cy="349" r="4" transform="rotate(90 100 349)" fill="#4D51B0"/>
<circle cx="100" cy="365" r="4" transform="rotate(90 100 365)" fill="#4D51B0"/>
<circle cx="84" cy="205" r="4" transform="rotate(90 84 205)" fill="#4D51B0"/>
<circle cx="84" cy="221" r="4" transform="rotate(90 84 221)" fill="#4D51B0"/>
<circle cx="84" cy="237" r="4" transform="rotate(90 84 237)" fill="#4D51B0"/>
<circle cx="84" cy="253" r="4" transform="rotate(90 84 253)" fill="#4D51B0"/>
<circle cx="84" cy="269" r="4" transform="rotate(90 84 269)" fill="#4D51B0"/>
<circle cx="84" cy="285" r="4" transform="rotate(90 84 285)" fill="#4D51B0"/>
<circle cx="84" cy="301" r="4" transform="rotate(90 84 301)" fill="#4D51B0"/>
<circle cx="84" cy="317" r="4" transform="rotate(90 84 317)" fill="#4D51B0"/>
<circle cx="84" cy="333" r="4" transform="rotate(90 84 333)" fill="#4D51B0"/>
<circle cx="84" cy="349" r="4" transform="rotate(90 84 349)" fill="#4D51B0"/>
<circle cx="84" cy="365" r="4" transform="rotate(90 84 365)" fill="#4D51B0"/>
<circle cx="68" cy="205" r="4" transform="rotate(90 68 205)" fill="#4D51B0"/>
<circle cx="68" cy="221" r="4" transform="rotate(90 68 221)" fill="#4D51B0"/>
<circle cx="68" cy="237" r="4" transform="rotate(90 68 237)" fill="#4D51B0"/>
<circle cx="68" cy="253" r="4" transform="rotate(90 68 253)" fill="#4D51B0"/>
<circle cx="68" cy="269" r="4" transform="rotate(90 68 269)" fill="#4D51B0"/>
<circle cx="68" cy="285" r="4" transform="rotate(90 68 285)" fill="#4D51B0"/>
<circle cx="68" cy="301" r="4" transform="rotate(90 68 301)" fill="#4D51B0"/>
<circle cx="68" cy="317" r="4" transform="rotate(90 68 317)" fill="#4D51B0"/>
<circle cx="68" cy="333" r="4" transform="rotate(90 68 333)" fill="#4D51B0"/>
<circle cx="68" cy="349" r="4" transform="rotate(90 68 349)" fill="#4D51B0"/>
<circle cx="68" cy="365" r="4" transform="rotate(90 68 365)" fill="#4D51B0"/>
<circle cx="52" cy="205" r="4" transform="rotate(90 52 205)" fill="#4D51B0"/>
<circle cx="52" cy="221" r="4" transform="rotate(90 52 221)" fill="#4D51B0"/>
<circle cx="52" cy="237" r="4" transform="rotate(90 52 237)" fill="#4D51B0"/>
<circle cx="52" cy="253" r="4" transform="rotate(90 52 253)" fill="#4D51B0"/>
<circle cx="52" cy="269" r="4" transform="rotate(90 52 269)" fill="#4D51B0"/>
<circle cx="52" cy="285" r="4" transform="rotate(90 52 285)" fill="#4D51B0"/>
<circle cx="52" cy="301" r="4" transform="rotate(90 52 301)" fill="#4D51B0"/>
<circle cx="52" cy="317" r="4" transform="rotate(90 52 317)" fill="#4D51B0"/>
<circle cx="52" cy="333" r="4" transform="rotate(90 52 333)" fill="#4D51B0"/>
<circle cx="52" cy="349" r="4" transform="rotate(90 52 349)" fill="#4D51B0"/>
<circle cx="52" cy="365" r="4" transform="rotate(90 52 365)" fill="#4D51B0"/>
<circle cx="36" cy="205" r="4" transform="rotate(90 36 205)" fill="#4D51B0"/>
<circle cx="36" cy="221" r="4" transform="rotate(90 36 221)" fill="#4D51B0"/>
<circle cx="36" cy="237" r="4" transform="rotate(90 36 237)" fill="#4D51B0"/>
<circle cx="36" cy="253" r="4" transform="rotate(90 36 253)" fill="#4D51B0"/>
<circle cx="36" cy="269" r="4" transform="rotate(90 36 269)" fill="#4D51B0"/>
<circle cx="36" cy="285" r="4" transform="rotate(90 36 285)" fill="#4D51B0"/>
<circle cx="36" cy="301" r="4" transform="rotate(90 36 301)" fill="#4D51B0"/>
<circle cx="36" cy="317" r="4" transform="rotate(90 36 317)" fill="#4D51B0"/>
<circle cx="36" cy="333" r="4" transform="rotate(90 36 333)" fill="#4D51B0"/>
<circle cx="36" cy="349" r="4" transform="rotate(90 36 349)" fill="#4D51B0"/>
<circle cx="36" cy="365" r="4" transform="rotate(90 36 365)" fill="#4D51B0"/>
<circle cx="20" cy="205" r="4" transform="rotate(90 20 205)" fill="#4D51B0"/>
<circle cx="20" cy="221" r="4" transform="rotate(90 20 221)" fill="#4D51B0"/>
<circle cx="20" cy="237" r="4" transform="rotate(90 20 237)" fill="#4D51B0"/>
<circle cx="20" cy="253" r="4" transform="rotate(90 20 253)" fill="#4D51B0"/>
<circle cx="20" cy="269" r="4" transform="rotate(90 20 269)" fill="#4D51B0"/>
<circle cx="20" cy="285" r="4" transform="rotate(90 20 285)" fill="#4D51B0"/>
<circle cx="20" cy="301" r="4" transform="rotate(90 20 301)" fill="#4D51B0"/>
<circle cx="20" cy="317" r="4" transform="rotate(90 20 317)" fill="#4D51B0"/>
<circle cx="20" cy="333" r="4" transform="rotate(90 20 333)" fill="#4D51B0"/>
<circle cx="20" cy="349" r="4" transform="rotate(90 20 349)" fill="#4D51B0"/>
<circle cx="20" cy="365" r="4" transform="rotate(90 20 365)" fill="#4D51B0"/>
<circle cx="4" cy="205" r="4" transform="rotate(90 4 205)" fill="#4D51B0"/>
<circle cx="4" cy="221" r="4" transform="rotate(90 4 221)" fill="#4D51B0"/>
<circle cx="4" cy="237" r="4" transform="rotate(90 4 237)" fill="#4D51B0"/>
<circle cx="4" cy="253" r="4" transform="rotate(90 4 253)" fill="#4D51B0"/>
<circle cx="4" cy="269" r="4" transform="rotate(90 4 269)" fill="#4D51B0"/>
<circle cx="4" cy="285" r="4" transform="rotate(90 4 285)" fill="#4D51B0"/>
<circle cx="4" cy="301" r="4" transform="rotate(90 4 301)" fill="#4D51B0"/>
<circle cx="4" cy="317" r="4" transform="rotate(90 4 317)" fill="#4D51B0"/>
<circle cx="4" cy="333" r="4" transform="rotate(90 4 333)" fill="#4D51B0"/>
<circle cx="4" cy="349" r="4" transform="rotate(90 4 349)" fill="#4D51B0"/>
<circle cx="4" cy="365" r="4" transform="rotate(90 4 365)" fill="#4D51B0"/>
</g>
</svg>
