<svg width="21" height="21" viewBox="0 0 21 21" fill="none" xmlns="http://www.w3.org/2000/svg">
<path d="M10.25 19.5L7.675 20.225C7.44167 20.2917 7.229 20.2543 7.037 20.113C6.845 19.9717 6.74933 19.784 6.75 19.55C6.75 19.35 6.775 19.1873 6.825 19.062C6.875 18.9367 6.94167 18.841 7.025 18.775L8.75 17.5V12L1.475 14.15C1.15833 14.2333 0.875 14.1833 0.625 14C0.375 13.8167 0.25 13.5583 0.25 13.225C0.25 12.975 0.291667 12.7667 0.375 12.6C0.458333 12.4333 0.575 12.3083 0.725 12.225L8.75 7.5V2C8.75 1.58334 8.896 1.22934 9.188 0.938002C9.48 0.646669 9.834 0.500669 10.25 0.500002C10.666 0.499336 11.0203 0.645336 11.313 0.938002C11.6057 1.23067 11.7513 1.58467 11.75 2V7.5L19.775 12.225C19.925 12.3083 20.0417 12.4333 20.125 12.6C20.2083 12.7667 20.25 12.975 20.25 13.225C20.25 13.5583 20.125 13.8167 19.875 14C19.625 14.1833 19.3417 14.2333 19.025 14.15L11.75 12V17.5L13.475 18.775C13.5583 18.8417 13.625 18.9377 13.675 19.063C13.725 19.1883 13.75 19.3507 13.75 19.55C13.75 19.7833 13.654 19.971 13.462 20.113C13.27 20.255 13.0577 20.2923 12.825 20.225L10.25 19.5Z" fill="white"/>
</svg>
