<svg width="24" height="25" viewBox="0 0 24 25" fill="none" xmlns="http://www.w3.org/2000/svg">
<g clip-path="url(#clip0_0_5356)">
<path d="M19.9996 23V24.5H3.99964V23C3.99964 20.519 6.01864 18.5 8.49964 18.5H15.4996C17.9806 18.5 19.9996 20.519 19.9996 23ZM13.7216 0.890994C12.6746 0.369994 11.3226 0.369994 10.2756 0.890994L2.05664 4.99999L10.2756 9.10899C10.7996 9.37099 11.3996 9.50199 11.9996 9.50199C12.5996 9.50199 13.1996 9.37099 13.7236 9.10899L19.9996 5.97199V12.501H21.9996V5.00099L13.7216 0.890994ZM17.9996 10.5V9.20699L14.6176 10.898C13.8296 11.293 12.9236 11.502 11.9996 11.502C11.0756 11.502 10.1726 11.294 9.38264 10.898L5.99964 9.20699V10.5C5.99964 13.809 8.69064 16.5 11.9996 16.5C15.3086 16.5 17.9996 13.809 17.9996 10.5Z" fill="black"/>
</g>
<defs>
<clipPath id="clip0_0_5356">
<rect width="24" height="24" fill="white" transform="translate(0 0.5)"/>
</clipPath>
</defs>
</svg>
