<svg width="42" height="41" viewBox="0 0 42 41" fill="none" xmlns="http://www.w3.org/2000/svg">
<rect x="0.5" y="0.5" width="41" height="40" rx="20" fill="#F1F1F1" stroke="#E1E1E1"/>
<path fill-rule="evenodd" clip-rule="evenodd" d="M13.122 23.2963L17.2887 27.0125C17.4514 27.1576 17.7152 27.1576 17.878 27.0125C18.0407 26.8674 18.0407 26.6321 17.878 26.4869L14.4226 23.4052L27.5833 23.4052C27.8134 23.4052 28 23.2388 28 23.0336C28 22.8283 27.8134 22.6619 27.5833 22.6619L14.4226 22.6619L17.4613 19.9518L17.878 19.5802C18.0407 19.435 18.0407 19.1997 17.878 19.0546C17.7152 18.9095 17.4514 18.9095 17.2887 19.0546L13.122 22.7708C12.9593 22.9159 12.9593 23.1512 13.122 23.2963ZM27.878 17.3505L23.7113 21.0667C23.5486 21.2117 23.2848 21.2117 23.122 21.0667C22.9593 20.9215 22.9593 20.6862 23.122 20.541L26.5774 17.4593L13.4167 17.4593C13.1866 17.4593 13 17.2929 13 17.0877C13 16.8825 13.1866 16.7161 13.4167 16.7161L26.5774 16.7161L23.122 13.6343C22.9593 13.4892 22.9593 13.2539 23.122 13.1087C23.2848 12.9636 23.5486 12.9636 23.7113 13.1087L27.878 16.8249C28.0407 16.97 28.0407 17.2053 27.878 17.3505Z" fill="black"/>
</svg>
