<svg width="24" height="25" viewBox="0 0 24 25" fill="none" xmlns="http://www.w3.org/2000/svg">
<g clip-path="url(#clip0_0_5415)">
<path d="M22 23.5C22 24.053 21.553 24.5 21 24.5H3C2.447 24.5 2 24.053 2 23.5C2 19.975 4.042 16.926 7 15.45V18.778C6.405 19.124 6 19.762 6 20.501C6 21.606 6.895 22.501 8 22.501C9.105 22.501 10 21.606 10 20.501C10 19.763 9.595 19.125 9 18.778V14.732C9.644 14.585 10.312 14.5 11 14.5H13C13.338 14.5 13.671 14.522 14 14.559V18.684C12.839 19.098 12 20.198 12 21.5V22.5C12 23.053 12.447 23.5 13 23.5C13.553 23.5 14 23.053 14 22.5V21.5C14 20.948 14.448 20.5 15 20.5C15.552 20.5 16 20.948 16 21.5V22.5C16 23.053 16.447 23.5 17 23.5C17.553 23.5 18 23.053 18 22.5V21.5C18 20.198 17.161 19.098 16 18.684V15.025C19.49 16.264 22 19.59 22 23.5ZM18 6.5C18 3.191 15.309 0.5 12 0.5C8.691 0.5 6 3.191 6 6.5C6 9.809 8.691 12.5 12 12.5C15.309 12.5 18 9.809 18 6.5Z" fill="black"/>
</g>
<defs>
<clipPath id="clip0_0_5415">
<rect width="24" height="24" fill="white" transform="translate(0 0.5)"/>
</clipPath>
</defs>
</svg>
