<svg width="24" height="25" viewBox="0 0 24 25" fill="none" xmlns="http://www.w3.org/2000/svg">
<g clip-path="url(#clip0_0_5406)">
<path d="M18 9.54297V6.54297L20 5.54297V2.54297L13.698 0.751975C12.583 0.472975 11.417 0.472975 10.302 0.751975L4 2.54297V5.54297L6 6.54297V9.54297C6 12.852 8.691 15.543 12 15.543C15.309 15.543 18 12.852 18 9.54297ZM10.015 3.01897L12 4.20997L13.985 3.01897L15.014 4.73397L11.999 6.54297L8.984 4.73397L10.013 3.01897H10.015ZM12 13.543C9.794 13.543 8 11.749 8 9.54297V8.15797C8.976 8.36397 10.309 8.54297 12 8.54297C13.691 8.54297 15.024 8.36397 16 8.15797V9.54297C16 11.749 14.206 13.543 12 13.543ZM9.5 16.5L11.5 19L10.012 24.5L7.205 19.057C6.166 19.201 5 20.179 5 22V24.5H3V22C3 18.968 5.468 16.5 8.5 16.5H9.5ZM21 22V24.5H19V22C19 20.179 17.834 19.201 16.93 18.825L14 24.5L12.5 19L14.5 16.5H15.5C18.532 16.5 21 18.968 21 22Z" fill="black"/>
</g>
<defs>
<clipPath id="clip0_0_5406">
<rect width="24" height="24" fill="white" transform="translate(0 0.5)"/>
</clipPath>
</defs>
</svg>
